# xmcd
# 
# Track frame offsets:
#     150
#     5147
#     41187
#     75572
#     117692
#     155155
#     194455
# 
# Disc length: 3008
# 
# Revision: 2
# Processed by: cddbd v1.5.2PL0 Copyright (c) Steve Scherf et al.
# Submitted via: BonkEnc v1.0.6
# 
DISCID=610bbe07
DTITLE=DAVID MATTHEWS ORCHESTRA - FURUHATA JAZZ IN N.Y.
DYEAR=1997
DGENRE=Jazz
TTITLE0=FURUHATA'S THEME -BALLAD OF THE BIG  APPLE(OVERTURE)-
TTITLE1=FURUHATA'S THEME -WEST 46TH STREET-
TTITLE2=INNOCENCE -KEEP THE CHANGE-
TTITLE3=FURUHATA'S THEME -FROM THE TOP-
TTITLE4=METROPOLIS -BECAUSE I SAY GO-
TTITLE5=FURUHATA'S THEME -BALLAD OF THE BIG APPLE-
TTITLE6=FURUHATA'S THEME -VOCAL VERSION-
EXTD=YEAR: 1997
EXTT0=
EXTT1=
EXTT2=
EXTT3=
EXTT4=
EXTT5=
EXTT6=
PLAYORDER=
